<mxfile host="app.diagrams.net" modified="2023-09-02T15:09:41.916Z" agent="Mozilla/5.0 (Windows NT 10.0; Win64; x64) AppleWebKit/537.36 (KHTML, like Gecko) Chrome/115.0.0.0 Safari/537.36 Edg/115.0.1901.203" etag="atnimnIb6obfr8R196nt" version="21.7.2" type="github">
  <diagram name="第 1 页" id="_atK0zFA7MxCZYgZpmvZ">
    <mxGraphModel dx="1779" dy="756" grid="0" gridSize="10" guides="1" tooltips="1" connect="1" arrows="1" fold="1" page="0" pageScale="1" pageWidth="827" pageHeight="1169" math="0" shadow="0">
      <root>
        <mxCell id="0" />
        <mxCell id="1" parent="0" />
        <mxCell id="j9moMQSgSFYx4H-si-Mr-19" value="" style="edgeStyle=orthogonalEdgeStyle;rounded=0;orthogonalLoop=1;jettySize=auto;html=1;" edge="1" parent="1" source="j9moMQSgSFYx4H-si-Mr-1" target="j9moMQSgSFYx4H-si-Mr-18">
          <mxGeometry relative="1" as="geometry" />
        </mxCell>
        <mxCell id="j9moMQSgSFYx4H-si-Mr-1" value="&lt;b&gt;新建&lt;/b&gt;" style="strokeWidth=2;html=1;shape=mxgraph.flowchart.terminator;whiteSpace=wrap;fillColor=#dae8fc;strokeColor=#6c8ebf;" vertex="1" parent="1">
          <mxGeometry x="126" y="262" width="100" height="60" as="geometry" />
        </mxCell>
        <mxCell id="j9moMQSgSFYx4H-si-Mr-26" style="edgeStyle=orthogonalEdgeStyle;rounded=0;orthogonalLoop=1;jettySize=auto;html=1;entryX=0;entryY=0.5;entryDx=0;entryDy=0;entryPerimeter=0;" edge="1" parent="1" source="j9moMQSgSFYx4H-si-Mr-6" target="j9moMQSgSFYx4H-si-Mr-1">
          <mxGeometry relative="1" as="geometry" />
        </mxCell>
        <mxCell id="j9moMQSgSFYx4H-si-Mr-6" value="&lt;b&gt;服务台&lt;/b&gt;" style="image;aspect=fixed;html=1;points=[];align=center;fontSize=12;image=img/lib/azure2/general/Help_and_Support.svg;" vertex="1" parent="1">
          <mxGeometry x="-52" y="202" width="56.00000000000001" height="69" as="geometry" />
        </mxCell>
        <mxCell id="j9moMQSgSFYx4H-si-Mr-10" style="edgeStyle=orthogonalEdgeStyle;rounded=0;orthogonalLoop=1;jettySize=auto;html=1;entryX=0;entryY=0.5;entryDx=0;entryDy=0;entryPerimeter=0;" edge="1" parent="1" source="j9moMQSgSFYx4H-si-Mr-7" target="j9moMQSgSFYx4H-si-Mr-1">
          <mxGeometry relative="1" as="geometry">
            <Array as="points">
              <mxPoint x="65" y="350" />
              <mxPoint x="65" y="292" />
            </Array>
          </mxGeometry>
        </mxCell>
        <mxCell id="j9moMQSgSFYx4H-si-Mr-7" value="&lt;b&gt;申请人&lt;/b&gt;" style="image;aspect=fixed;html=1;points=[];align=center;fontSize=12;image=img/lib/azure2/identity/Groups.svg;" vertex="1" parent="1">
          <mxGeometry x="-56" y="322" width="68" height="56.00000000000001" as="geometry" />
        </mxCell>
        <mxCell id="j9moMQSgSFYx4H-si-Mr-21" value="" style="edgeStyle=orthogonalEdgeStyle;rounded=0;orthogonalLoop=1;jettySize=auto;html=1;" edge="1" parent="1" source="j9moMQSgSFYx4H-si-Mr-18" target="j9moMQSgSFYx4H-si-Mr-20">
          <mxGeometry relative="1" as="geometry" />
        </mxCell>
        <mxCell id="j9moMQSgSFYx4H-si-Mr-18" value="&lt;b&gt;一线处理&lt;/b&gt;" style="whiteSpace=wrap;html=1;strokeWidth=2;fillColor=#dae8fc;strokeColor=#6c8ebf;" vertex="1" parent="1">
          <mxGeometry x="277" y="262" width="120" height="60" as="geometry" />
        </mxCell>
        <mxCell id="j9moMQSgSFYx4H-si-Mr-23" value="" style="edgeStyle=orthogonalEdgeStyle;rounded=0;orthogonalLoop=1;jettySize=auto;html=1;" edge="1" parent="1" source="j9moMQSgSFYx4H-si-Mr-20" target="j9moMQSgSFYx4H-si-Mr-22">
          <mxGeometry relative="1" as="geometry" />
        </mxCell>
        <mxCell id="j9moMQSgSFYx4H-si-Mr-20" value="&lt;b&gt;二线处理&lt;/b&gt;" style="whiteSpace=wrap;html=1;strokeWidth=2;fillColor=#dae8fc;strokeColor=#6c8ebf;" vertex="1" parent="1">
          <mxGeometry x="455" y="262" width="120" height="60" as="geometry" />
        </mxCell>
        <mxCell id="j9moMQSgSFYx4H-si-Mr-25" value="" style="edgeStyle=orthogonalEdgeStyle;rounded=0;orthogonalLoop=1;jettySize=auto;html=1;" edge="1" parent="1" source="j9moMQSgSFYx4H-si-Mr-22" target="j9moMQSgSFYx4H-si-Mr-24">
          <mxGeometry relative="1" as="geometry" />
        </mxCell>
        <mxCell id="j9moMQSgSFYx4H-si-Mr-22" value="&lt;b&gt;事件关闭&lt;/b&gt;" style="whiteSpace=wrap;html=1;strokeWidth=2;fillColor=#dae8fc;strokeColor=#6c8ebf;" vertex="1" parent="1">
          <mxGeometry x="637" y="262" width="120" height="60" as="geometry" />
        </mxCell>
        <mxCell id="j9moMQSgSFYx4H-si-Mr-24" value="&lt;b&gt;结束&lt;/b&gt;" style="ellipse;whiteSpace=wrap;html=1;strokeWidth=2;fillColor=#dae8fc;strokeColor=#6c8ebf;" vertex="1" parent="1">
          <mxGeometry x="817" y="267.5" width="61" height="49" as="geometry" />
        </mxCell>
        <mxCell id="j9moMQSgSFYx4H-si-Mr-40" style="edgeStyle=orthogonalEdgeStyle;rounded=0;orthogonalLoop=1;jettySize=auto;html=1;entryX=0;entryY=0.5;entryDx=0;entryDy=0;entryPerimeter=0;" edge="1" parent="1" source="j9moMQSgSFYx4H-si-Mr-27" target="j9moMQSgSFYx4H-si-Mr-28">
          <mxGeometry relative="1" as="geometry" />
        </mxCell>
        <mxCell id="j9moMQSgSFYx4H-si-Mr-27" value="&lt;b&gt;申请人&lt;/b&gt;" style="image;aspect=fixed;html=1;points=[];align=center;fontSize=12;image=img/lib/azure2/identity/Groups.svg;" vertex="1" parent="1">
          <mxGeometry x="-22" y="580" width="68" height="56.00000000000001" as="geometry" />
        </mxCell>
        <mxCell id="j9moMQSgSFYx4H-si-Mr-30" value="" style="edgeStyle=orthogonalEdgeStyle;rounded=0;orthogonalLoop=1;jettySize=auto;html=1;" edge="1" parent="1" source="j9moMQSgSFYx4H-si-Mr-28" target="j9moMQSgSFYx4H-si-Mr-29">
          <mxGeometry relative="1" as="geometry" />
        </mxCell>
        <mxCell id="j9moMQSgSFYx4H-si-Mr-28" value="&lt;b&gt;新建&lt;/b&gt;" style="strokeWidth=2;html=1;shape=mxgraph.flowchart.terminator;whiteSpace=wrap;fillColor=#dae8fc;strokeColor=#6c8ebf;" vertex="1" parent="1">
          <mxGeometry x="103" y="578" width="100" height="60" as="geometry" />
        </mxCell>
        <mxCell id="j9moMQSgSFYx4H-si-Mr-32" value="" style="edgeStyle=orthogonalEdgeStyle;rounded=0;orthogonalLoop=1;jettySize=auto;html=1;" edge="1" parent="1" source="j9moMQSgSFYx4H-si-Mr-29" target="j9moMQSgSFYx4H-si-Mr-31">
          <mxGeometry relative="1" as="geometry" />
        </mxCell>
        <mxCell id="j9moMQSgSFYx4H-si-Mr-29" value="&lt;b&gt;问题评估&lt;/b&gt;" style="whiteSpace=wrap;html=1;fillColor=#dae8fc;strokeColor=#6c8ebf;strokeWidth=2;" vertex="1" parent="1">
          <mxGeometry x="254" y="578" width="120" height="60" as="geometry" />
        </mxCell>
        <mxCell id="j9moMQSgSFYx4H-si-Mr-34" value="" style="edgeStyle=orthogonalEdgeStyle;rounded=0;orthogonalLoop=1;jettySize=auto;html=1;" edge="1" parent="1" source="j9moMQSgSFYx4H-si-Mr-31" target="j9moMQSgSFYx4H-si-Mr-33">
          <mxGeometry relative="1" as="geometry" />
        </mxCell>
        <mxCell id="j9moMQSgSFYx4H-si-Mr-31" value="&lt;b&gt;调查原因&lt;/b&gt;" style="whiteSpace=wrap;html=1;fillColor=#dae8fc;strokeColor=#6c8ebf;strokeWidth=2;" vertex="1" parent="1">
          <mxGeometry x="427" y="578" width="120" height="60" as="geometry" />
        </mxCell>
        <mxCell id="j9moMQSgSFYx4H-si-Mr-36" value="" style="edgeStyle=orthogonalEdgeStyle;rounded=0;orthogonalLoop=1;jettySize=auto;html=1;" edge="1" parent="1" source="j9moMQSgSFYx4H-si-Mr-33" target="j9moMQSgSFYx4H-si-Mr-35">
          <mxGeometry relative="1" as="geometry" />
        </mxCell>
        <mxCell id="j9moMQSgSFYx4H-si-Mr-33" value="&lt;b&gt;制定解决方案&lt;/b&gt;" style="whiteSpace=wrap;html=1;fillColor=#dae8fc;strokeColor=#6c8ebf;strokeWidth=2;" vertex="1" parent="1">
          <mxGeometry x="600" y="578" width="120" height="60" as="geometry" />
        </mxCell>
        <mxCell id="j9moMQSgSFYx4H-si-Mr-39" value="" style="edgeStyle=orthogonalEdgeStyle;rounded=0;orthogonalLoop=1;jettySize=auto;html=1;" edge="1" parent="1" source="j9moMQSgSFYx4H-si-Mr-35" target="j9moMQSgSFYx4H-si-Mr-38">
          <mxGeometry relative="1" as="geometry" />
        </mxCell>
        <mxCell id="j9moMQSgSFYx4H-si-Mr-35" value="&lt;b&gt;解决问题&lt;/b&gt;" style="whiteSpace=wrap;html=1;fillColor=#dae8fc;strokeColor=#6c8ebf;strokeWidth=2;" vertex="1" parent="1">
          <mxGeometry x="769" y="578" width="120" height="60" as="geometry" />
        </mxCell>
        <mxCell id="j9moMQSgSFYx4H-si-Mr-38" value="&lt;b&gt;结束&lt;/b&gt;" style="ellipse;whiteSpace=wrap;html=1;fillColor=#dae8fc;strokeColor=#6c8ebf;strokeWidth=2;" vertex="1" parent="1">
          <mxGeometry x="937" y="583" width="56" height="49" as="geometry" />
        </mxCell>
      </root>
    </mxGraphModel>
  </diagram>
</mxfile>
